<svg width="1087" height="790" viewBox="0 0 1087 790" fill="none" xmlns="http://www.w3.org/2000/svg">
<rect width="1087" height="790" fill="#E5E5E5"/>
<path d="M256.31 314.57C256.31 314.57 243.5 343.3 184.41 333.25" stroke="#535461" stroke-width="2" stroke-miterlimit="10"/>
<path d="M175.1 420.98C175.1 420.98 220.57 375.5 206.67 358.98" stroke="#535461" stroke-width="2" stroke-miterlimit="10"/>
<path opacity="0.1" d="M617.97 771.68C874.782 771.68 1082.97 715.93 1082.97 647.16C1082.97 578.389 874.782 522.64 617.97 522.64C361.158 522.64 152.97 578.389 152.97 647.16C152.97 715.93 361.158 771.68 617.97 771.68Z" fill="#282828"/>
<path d="M1072.41 541.5H987.32C989.289 537.566 990.316 533.229 990.32 528.83V141.35C990.315 133.797 987.311 126.556 981.968 121.217C976.626 115.879 969.383 112.88 961.83 112.88H303.16C295.604 112.88 288.357 115.882 283.015 121.225C277.672 126.567 274.67 133.814 274.67 141.37V528.83C274.674 533.229 275.701 537.566 277.67 541.5H189.57C187.573 541.5 185.658 542.293 184.245 543.706C182.833 545.118 182.04 547.033 182.04 549.03V555.1C182.04 566.276 186.48 576.995 194.383 584.897C202.285 592.8 213.004 597.24 224.18 597.24H1037.86C1049.04 597.24 1059.75 592.8 1067.66 584.897C1075.56 576.995 1080 566.276 1080 555.1V549.03C1080 548.036 1079.8 547.052 1079.42 546.134C1079.04 545.217 1078.48 544.384 1077.77 543.684C1077.07 542.984 1076.23 542.431 1075.31 542.056C1074.39 541.681 1073.4 541.492 1072.41 541.5ZM548.12 565.6L540.82 557.31H721.93L713.85 565.6H548.12Z" fill="url(#paint0_linear)"/>
<path d="M958.92 118.35H306C293.154 118.35 282.74 128.764 282.74 141.61V529.48C282.74 542.326 293.154 552.74 306 552.74H958.92C971.766 552.74 982.18 542.326 982.18 529.48V141.61C982.18 128.764 971.766 118.35 958.92 118.35Z" fill="#535461"/>
<path d="M965.99 181.67H297.47V536.54H965.99V181.67Z" fill="#F1F1F4"/>
<path d="M631.73 156.63C634.983 156.63 637.62 153.993 637.62 150.74C637.62 147.487 634.983 144.85 631.73 144.85C628.477 144.85 625.84 147.487 625.84 150.74C625.84 153.993 628.477 156.63 631.73 156.63Z" fill="white"/>
<path d="M734.95 537.27L711.95 560.83H549.95L529.19 537.27H199.54C197.588 537.27 195.716 538.045 194.336 539.426C192.955 540.806 192.18 542.678 192.18 544.63V550.57C192.18 555.982 193.247 561.341 195.319 566.34C197.392 571.34 200.43 575.882 204.259 579.706C208.088 583.531 212.634 586.563 217.636 588.63C222.638 590.696 227.998 591.757 233.41 591.75H1028.61C1039.53 591.75 1050.01 587.411 1057.73 579.689C1065.45 571.966 1069.79 561.492 1069.79 550.57V544.63C1069.79 542.678 1069.01 540.806 1067.63 539.426C1066.25 538.045 1064.38 537.27 1062.43 537.27H734.95Z" fill="#535461"/>
<path d="M521.07 208.71H338.3V346.45H521.07V208.71Z" fill="white"/>
<path opacity="0.2" d="M417.1 220.63H356.18V255.06H417.1V220.63Z" fill="#6C63FF"/>
<path d="M503.19 220.63H431.67V228.58H503.19V220.63Z" fill="#E6E8EC"/>
<path d="M482 233.87H431.67V241.82H482V233.87Z" fill="#E6E8EC"/>
<path d="M503.19 247.11H431.67V255.06H503.19V247.11Z" fill="#E6E8EC"/>
<path d="M503.19 260.36H356.18V268.31H503.19V260.36Z" fill="#E6E8EC"/>
<path d="M503.19 273.6H356.18V281.55H503.19V273.6Z" fill="#E6E8EC"/>
<path d="M503.19 286.85H356.18V294.8H503.19V286.85Z" fill="#E6E8EC"/>
<path d="M491.27 300.09H356.18V308.04H491.27V300.09Z" fill="#E6E8EC"/>
<path d="M503.19 313.33H356.18V321.28H503.19V313.33Z" fill="#E6E8EC"/>
<path d="M503.19 326.58H356.18V334.53H503.19V326.58Z" fill="#E6E8EC"/>
<path d="M722.38 208.71H539.61V346.45H722.38V208.71Z" fill="white"/>
<path opacity="0.2" d="M618.4 220.63H557.48V255.06H618.4V220.63Z" fill="#6C63FF"/>
<path d="M704.5 220.63H632.98V228.58H704.5V220.63Z" fill="#E6E8EC"/>
<path d="M683.31 233.87H632.98V241.82H683.31V233.87Z" fill="#E6E8EC"/>
<path d="M704.5 247.11H632.98V255.06H704.5V247.11Z" fill="#E6E8EC"/>
<path d="M704.49 260.36H557.48V268.31H704.49V260.36Z" fill="#E6E8EC"/>
<path d="M704.49 273.6H557.48V281.55H704.49V273.6Z" fill="#E6E8EC"/>
<path d="M704.49 286.85H557.48V294.8H704.49V286.85Z" fill="#E6E8EC"/>
<path d="M692.57 300.09H557.48V308.04H692.57V300.09Z" fill="#E6E8EC"/>
<path d="M704.49 313.33H557.48V321.28H704.49V313.33Z" fill="#E6E8EC"/>
<path d="M704.49 326.58H557.48V334.53H704.49V326.58Z" fill="#E6E8EC"/>
<path d="M923.68 208.71H740.91V346.45H923.68V208.71Z" fill="white"/>
<path opacity="0.2" d="M819.71 220.63H758.79V255.06H819.71V220.63Z" fill="#6C63FF"/>
<path d="M905.8 220.63H834.28V228.58H905.8V220.63Z" fill="#E6E8EC"/>
<path d="M884.61 233.87H834.28V241.82H884.61V233.87Z" fill="#E6E8EC"/>
<path d="M905.8 247.11H834.28V255.06H905.8V247.11Z" fill="#E6E8EC"/>
<path d="M905.8 260.36H758.79V268.31H905.8V260.36Z" fill="#E6E8EC"/>
<path d="M905.8 273.6H758.79V281.55H905.8V273.6Z" fill="#E6E8EC"/>
<path d="M905.8 286.85H758.79V294.8H905.8V286.85Z" fill="#E6E8EC"/>
<path d="M893.88 300.09H758.79V308.04H893.88V300.09Z" fill="#E6E8EC"/>
<path d="M905.8 313.33H758.79V321.28H905.8V313.33Z" fill="#E6E8EC"/>
<path d="M905.8 326.58H758.79V334.53H905.8V326.58Z" fill="#E6E8EC"/>
<path d="M521.07 363.66H338.3V501.4H521.07V363.66Z" fill="white"/>
<path opacity="0.2" d="M417.1 375.58H356.18V410.01H417.1V375.58Z" fill="#6C63FF"/>
<path d="M503.19 375.58H431.67V383.53H503.19V375.58Z" fill="#E6E8EC"/>
<path d="M482 388.83H431.67V396.78H482V388.83Z" fill="#E6E8EC"/>
<path d="M503.19 402.07H431.67V410.02H503.19V402.07Z" fill="#E6E8EC"/>
<path d="M503.19 415.31H356.18V423.26H503.19V415.31Z" fill="#E6E8EC"/>
<path d="M503.19 428.56H356.18V436.51H503.19V428.56Z" fill="#E6E8EC"/>
<path d="M503.19 441.8H356.18V449.75H503.19V441.8Z" fill="#E6E8EC"/>
<path d="M491.27 455.05H356.18V463H491.27V455.05Z" fill="#E6E8EC"/>
<path d="M503.19 468.29H356.18V476.24H503.19V468.29Z" fill="#E6E8EC"/>
<path d="M503.19 481.53H356.18V489.48H503.19V481.53Z" fill="#E6E8EC"/>
<path d="M722.38 363.66H539.61V501.4H722.38V363.66Z" fill="white"/>
<path opacity="0.2" d="M618.4 375.58H557.48V410.01H618.4V375.58Z" fill="#6C63FF"/>
<path d="M704.5 375.58H632.98V383.53H704.5V375.58Z" fill="#E6E8EC"/>
<path d="M683.31 388.83H632.98V396.78H683.31V388.83Z" fill="#E6E8EC"/>
<path d="M704.5 402.07H632.98V410.02H704.5V402.07Z" fill="#E6E8EC"/>
<path d="M704.49 415.31H557.48V423.26H704.49V415.31Z" fill="#E6E8EC"/>
<path d="M704.49 428.56H557.48V436.51H704.49V428.56Z" fill="#E6E8EC"/>
<path d="M704.49 441.8H557.48V449.75H704.49V441.8Z" fill="#E6E8EC"/>
<path d="M692.57 455.05H557.48V463H692.57V455.05Z" fill="#E6E8EC"/>
<path d="M704.49 468.29H557.48V476.24H704.49V468.29Z" fill="#E6E8EC"/>
<path d="M704.49 481.53H557.48V489.48H704.49V481.53Z" fill="#E6E8EC"/>
<path opacity="0.1" d="M923.68 363.66H740.91V501.4H923.68V363.66Z" fill="black"/>
<path d="M442.07 255.06H160.07C156.675 255.053 153.311 255.716 150.172 257.011C147.033 258.305 144.18 260.206 141.777 262.604C139.373 265.002 137.466 267.851 136.164 270.987C134.862 274.123 134.191 277.485 134.19 280.88V671.62C134.194 675.013 134.866 678.372 136.169 681.505C137.471 684.638 139.378 687.483 141.78 689.879C144.183 692.275 147.033 694.174 150.17 695.468C153.306 696.762 156.667 697.425 160.06 697.42H442.06C445.453 697.425 448.814 696.762 451.95 695.468C455.087 694.174 457.937 692.275 460.34 689.879C462.742 687.483 464.649 684.638 465.951 681.505C467.254 678.372 467.926 675.013 467.93 671.62V280.88C467.929 277.486 467.259 274.126 465.958 270.991C464.658 267.857 462.752 265.009 460.35 262.611C457.949 260.213 455.098 258.312 451.962 257.017C448.825 255.721 445.464 255.056 442.07 255.06V255.06Z" fill="url(#paint1_linear)"/>
<path d="M443.97 260.36H158.17C147.124 260.36 138.17 269.314 138.17 280.36V673.44C138.17 684.486 147.124 693.44 158.17 693.44H443.97C455.016 693.44 463.97 684.486 463.97 673.44V280.36C463.97 269.314 455.016 260.36 443.97 260.36Z" fill="#535461"/>
<path d="M447.41 301.33H154.72V652.48H447.41V301.33Z" fill="#F1F1F4"/>
<path d="M299.74 284.2C301.933 284.2 303.71 282.423 303.71 280.23C303.71 278.037 301.933 276.26 299.74 276.26C297.547 276.26 295.77 278.037 295.77 280.23C295.77 282.423 297.547 284.2 299.74 284.2Z" fill="white"/>
<path d="M299.74 684.17C306.323 684.17 311.66 678.833 311.66 672.25C311.66 665.667 306.323 660.33 299.74 660.33C293.157 660.33 287.82 665.667 287.82 672.25C287.82 678.833 293.157 684.17 299.74 684.17Z" fill="white"/>
<path d="M250.85 337.21H167.37V400.13H250.85V337.21Z" fill="white"/>
<path opacity="0.2" d="M203.37 342.66H175.54V358.39H203.37V342.66Z" fill="#6C63FF"/>
<path d="M242.69 342.66H210.02V346.29H242.69V342.66Z" fill="#E6E8EC"/>
<path d="M233.01 348.71H210.02V352.34H233.01V348.71Z" fill="#E6E8EC"/>
<path d="M242.69 354.76H210.02V358.39H242.69V354.76Z" fill="#E6E8EC"/>
<path d="M242.69 360.81H175.54V364.44H242.69V360.81Z" fill="#E6E8EC"/>
<path d="M242.69 366.86H175.54V370.49H242.69V366.86Z" fill="#E6E8EC"/>
<path d="M242.69 372.91H175.54V376.54H242.69V372.91Z" fill="#E6E8EC"/>
<path d="M237.25 378.96H175.54V382.59H237.25V378.96Z" fill="#E6E8EC"/>
<path d="M242.69 385.01H175.54V388.64H242.69V385.01Z" fill="#E6E8EC"/>
<path d="M242.69 391.06H175.54V394.69H242.69V391.06Z" fill="#E6E8EC"/>
<path d="M342.81 337.21H259.33V400.13H342.81V337.21Z" fill="white"/>
<path opacity="0.2" d="M295.32 342.66H267.49V358.39H295.32V342.66Z" fill="#6C63FF"/>
<path d="M334.65 342.66H301.98V346.29H334.65V342.66Z" fill="#E6E8EC"/>
<path d="M324.97 348.71H301.98V352.34H324.97V348.71Z" fill="#E6E8EC"/>
<path d="M334.65 354.76H301.98V358.39H334.65V354.76Z" fill="#E6E8EC"/>
<path d="M334.64 360.81H267.49V364.44H334.64V360.81Z" fill="#E6E8EC"/>
<path d="M334.64 366.86H267.49V370.49H334.64V366.86Z" fill="#E6E8EC"/>
<path d="M334.64 372.91H267.49V376.54H334.64V372.91Z" fill="#E6E8EC"/>
<path d="M329.2 378.96H267.49V382.59H329.2V378.96Z" fill="#E6E8EC"/>
<path d="M334.64 385.01H267.49V388.64H334.64V385.01Z" fill="#E6E8EC"/>
<path d="M334.64 391.06H267.49V394.69H334.64V391.06Z" fill="#E6E8EC"/>
<path d="M434.76 337.21H351.28V400.13H434.76V337.21Z" fill="white"/>
<path opacity="0.2" d="M387.28 342.66H359.45V358.39H387.28V342.66Z" fill="#6C63FF"/>
<path d="M426.6 342.66H393.93V346.29H426.6V342.66Z" fill="#E6E8EC"/>
<path d="M416.92 348.71H393.93V352.34H416.92V348.71Z" fill="#E6E8EC"/>
<path d="M426.6 354.76H393.93V358.39H426.6V354.76Z" fill="#E6E8EC"/>
<path d="M426.6 360.81H359.45V364.44H426.6V360.81Z" fill="#E6E8EC"/>
<path d="M426.6 366.86H359.45V370.49H426.6V366.86Z" fill="#E6E8EC"/>
<path d="M426.6 372.91H359.45V376.54H426.6V372.91Z" fill="#E6E8EC"/>
<path d="M421.16 378.96H359.45V382.59H421.16V378.96Z" fill="#E6E8EC"/>
<path d="M426.6 385.01H359.45V388.64H426.6V385.01Z" fill="#E6E8EC"/>
<path d="M426.6 391.06H359.45V394.69H426.6V391.06Z" fill="#E6E8EC"/>
<path d="M250.85 407.99H167.37V470.91H250.85V407.99Z" fill="white"/>
<path opacity="0.2" d="M203.37 413.44H175.54V429.17H203.37V413.44Z" fill="#6C63FF"/>
<path d="M242.69 413.44H210.02V417.07H242.69V413.44Z" fill="#E6E8EC"/>
<path d="M233.01 419.49H210.02V423.12H233.01V419.49Z" fill="#E6E8EC"/>
<path d="M242.69 425.54H210.02V429.17H242.69V425.54Z" fill="#E6E8EC"/>
<path d="M242.69 431.59H175.54V435.22H242.69V431.59Z" fill="#E6E8EC"/>
<path d="M242.69 437.64H175.54V441.27H242.69V437.64Z" fill="#E6E8EC"/>
<path d="M242.69 443.69H175.54V447.32H242.69V443.69Z" fill="#E6E8EC"/>
<path d="M237.25 449.74H175.54V453.37H237.25V449.74Z" fill="#E6E8EC"/>
<path d="M242.69 455.79H175.54V459.42H242.69V455.79Z" fill="#E6E8EC"/>
<path d="M242.69 461.84H175.54V465.47H242.69V461.84Z" fill="#E6E8EC"/>
<path d="M342.81 407.99H259.33V470.91H342.81V407.99Z" fill="white"/>
<path opacity="0.2" d="M295.32 413.44H267.49V429.17H295.32V413.44Z" fill="#6C63FF"/>
<path d="M334.65 413.44H301.98V417.07H334.65V413.44Z" fill="#E6E8EC"/>
<path d="M324.97 419.49H301.98V423.12H324.97V419.49Z" fill="#E6E8EC"/>
<path d="M334.65 425.54H301.98V429.17H334.65V425.54Z" fill="#E6E8EC"/>
<path d="M334.64 431.59H267.49V435.22H334.64V431.59Z" fill="#E6E8EC"/>
<path d="M334.64 437.64H267.49V441.27H334.64V437.64Z" fill="#E6E8EC"/>
<path d="M334.64 443.69H267.49V447.32H334.64V443.69Z" fill="#E6E8EC"/>
<path d="M329.2 449.74H267.49V453.37H329.2V449.74Z" fill="#E6E8EC"/>
<path d="M334.64 455.79H267.49V459.42H334.64V455.79Z" fill="#E6E8EC"/>
<path d="M334.64 461.84H267.49V465.47H334.64V461.84Z" fill="#E6E8EC"/>
<path d="M434.76 407.99H351.28V470.91H434.76V407.99Z" fill="white"/>
<path opacity="0.2" d="M387.28 413.44H359.45V429.17H387.28V413.44Z" fill="#6C63FF"/>
<path d="M426.6 413.44H393.93V417.07H426.6V413.44Z" fill="#E6E8EC"/>
<path d="M416.92 419.49H393.93V423.12H416.92V419.49Z" fill="#E6E8EC"/>
<path d="M426.6 425.54H393.93V429.17H426.6V425.54Z" fill="#E6E8EC"/>
<path d="M426.6 431.59H359.45V435.22H426.6V431.59Z" fill="#E6E8EC"/>
<path d="M426.6 437.64H359.45V441.27H426.6V437.64Z" fill="#E6E8EC"/>
<path d="M426.6 443.69H359.45V447.32H426.6V443.69Z" fill="#E6E8EC"/>
<path d="M421.16 449.74H359.45V453.37H421.16V449.74Z" fill="#E6E8EC"/>
<path d="M426.6 455.79H359.45V459.42H426.6V455.79Z" fill="#E6E8EC"/>
<path d="M426.6 461.84H359.45V465.47H426.6V461.84Z" fill="#E6E8EC"/>
<path d="M250.85 481.57H167.37V544.49H250.85V481.57Z" fill="white"/>
<path opacity="0.2" d="M203.37 487.02H175.54V502.75H203.37V487.02Z" fill="#6C63FF"/>
<path d="M242.69 487.02H210.02V490.65H242.69V487.02Z" fill="#E6E8EC"/>
<path d="M233.01 493.07H210.02V496.7H233.01V493.07Z" fill="#E6E8EC"/>
<path d="M242.69 499.12H210.02V502.75H242.69V499.12Z" fill="#E6E8EC"/>
<path d="M242.69 505.17H175.54V508.8H242.69V505.17Z" fill="#E6E8EC"/>
<path d="M242.69 511.22H175.54V514.85H242.69V511.22Z" fill="#E6E8EC"/>
<path d="M242.69 517.27H175.54V520.9H242.69V517.27Z" fill="#E6E8EC"/>
<path d="M237.25 523.32H175.54V526.95H237.25V523.32Z" fill="#E6E8EC"/>
<path d="M242.69 529.37H175.54V533H242.69V529.37Z" fill="#E6E8EC"/>
<path d="M242.69 535.42H175.54V539.05H242.69V535.42Z" fill="#E6E8EC"/>
<path d="M342.81 481.57H259.33V544.49H342.81V481.57Z" fill="white"/>
<path opacity="0.2" d="M295.32 487.02H267.49V502.75H295.32V487.02Z" fill="#6C63FF"/>
<path d="M334.65 487.02H301.98V490.65H334.65V487.02Z" fill="#E6E8EC"/>
<path d="M324.97 493.07H301.98V496.7H324.97V493.07Z" fill="#E6E8EC"/>
<path d="M334.65 499.12H301.98V502.75H334.65V499.12Z" fill="#E6E8EC"/>
<path d="M334.64 505.17H267.49V508.8H334.64V505.17Z" fill="#E6E8EC"/>
<path d="M334.64 511.22H267.49V514.85H334.64V511.22Z" fill="#E6E8EC"/>
<path d="M334.64 517.27H267.49V520.9H334.64V517.27Z" fill="#E6E8EC"/>
<path d="M329.2 523.32H267.49V526.95H329.2V523.32Z" fill="#E6E8EC"/>
<path d="M334.64 529.37H267.49V533H334.64V529.37Z" fill="#E6E8EC"/>
<path d="M334.64 535.42H267.49V539.05H334.64V535.42Z" fill="#E6E8EC"/>
<path d="M434.76 481.57H351.28V544.49H434.76V481.57Z" fill="white"/>
<path opacity="0.2" d="M387.28 487.02H359.45V502.75H387.28V487.02Z" fill="#6C63FF"/>
<path d="M426.6 487.02H393.93V490.65H426.6V487.02Z" fill="#E6E8EC"/>
<path d="M416.92 493.07H393.93V496.7H416.92V493.07Z" fill="#E6E8EC"/>
<path d="M426.6 499.12H393.93V502.75H426.6V499.12Z" fill="#E6E8EC"/>
<path d="M426.6 505.17H359.45V508.8H426.6V505.17Z" fill="#E6E8EC"/>
<path d="M426.6 511.22H359.45V514.85H426.6V511.22Z" fill="#E6E8EC"/>
<path d="M426.6 517.27H359.45V520.9H426.6V517.27Z" fill="#E6E8EC"/>
<path d="M421.16 523.32H359.45V526.95H421.16V523.32Z" fill="#E6E8EC"/>
<path d="M426.6 529.37H359.45V533H426.6V529.37Z" fill="#E6E8EC"/>
<path d="M426.6 535.42H359.45V539.05H426.6V535.42Z" fill="#E6E8EC"/>
<path d="M250.85 552.35H167.37V615.27H250.85V552.35Z" fill="white"/>
<path opacity="0.2" d="M203.37 557.8H175.54V573.53H203.37V557.8Z" fill="#6C63FF"/>
<path d="M242.69 557.8H210.02V561.43H242.69V557.8Z" fill="#E6E8EC"/>
<path d="M233.01 563.85H210.02V567.48H233.01V563.85Z" fill="#E6E8EC"/>
<path d="M242.69 569.9H210.02V573.53H242.69V569.9Z" fill="#E6E8EC"/>
<path d="M242.69 575.95H175.54V579.58H242.69V575.95Z" fill="#E6E8EC"/>
<path d="M242.69 582H175.54V585.63H242.69V582Z" fill="#E6E8EC"/>
<path d="M242.69 588.05H175.54V591.68H242.69V588.05Z" fill="#E6E8EC"/>
<path d="M237.25 594.1H175.54V597.73H237.25V594.1Z" fill="#E6E8EC"/>
<path d="M242.69 600.15H175.54V603.78H242.69V600.15Z" fill="#E6E8EC"/>
<path d="M242.69 606.2H175.54V609.83H242.69V606.2Z" fill="#E6E8EC"/>
<path d="M342.81 552.35H259.33V615.27H342.81V552.35Z" fill="white"/>
<path opacity="0.2" d="M295.32 557.8H267.49V573.53H295.32V557.8Z" fill="#6C63FF"/>
<path d="M334.65 557.8H301.98V561.43H334.65V557.8Z" fill="#E6E8EC"/>
<path d="M324.97 563.85H301.98V567.48H324.97V563.85Z" fill="#E6E8EC"/>
<path d="M334.65 569.9H301.98V573.53H334.65V569.9Z" fill="#E6E8EC"/>
<path d="M334.64 575.95H267.49V579.58H334.64V575.95Z" fill="#E6E8EC"/>
<path d="M334.64 582H267.49V585.63H334.64V582Z" fill="#E6E8EC"/>
<path d="M334.64 588.05H267.49V591.68H334.64V588.05Z" fill="#E6E8EC"/>
<path d="M329.2 594.1H267.49V597.73H329.2V594.1Z" fill="#E6E8EC"/>
<path d="M334.64 600.15H267.49V603.78H334.64V600.15Z" fill="#E6E8EC"/>
<path d="M334.64 606.2H267.49V609.83H334.64V606.2Z" fill="#E6E8EC"/>
<path opacity="0.1" d="M434.76 552.35H351.28V615.27H434.76V552.35Z" fill="black"/>
<path d="M227.12 387.5H82.32C80.4394 387.496 78.5766 387.863 76.8377 388.579C75.0988 389.295 73.5179 390.346 72.1854 391.673C70.8529 393 69.7948 394.576 69.0715 396.312C68.3482 398.048 67.9739 399.909 67.97 401.79V718.88C67.9739 720.761 68.3482 722.622 69.0715 724.358C69.7948 726.094 70.8529 727.67 72.1854 728.997C73.5179 730.324 75.0988 731.375 76.8377 732.091C78.5766 732.807 80.4394 733.174 82.32 733.17H227.12C229 733.174 230.863 732.807 232.602 732.091C234.341 731.375 235.922 730.324 237.255 728.997C238.587 727.67 239.645 726.094 240.368 724.358C241.092 722.622 241.466 720.761 241.47 718.88V401.8C241.467 399.919 241.094 398.056 240.371 396.319C239.649 394.582 238.591 393.005 237.258 391.677C235.925 390.349 234.344 389.296 232.605 388.58C230.865 387.863 229.001 387.496 227.12 387.5V387.5Z" fill="url(#paint2_linear)"/>
<path d="M229.15 390.16H80.3C74.2249 390.16 69.3 395.085 69.3 401.16V720.86C69.3 726.935 74.2249 731.86 80.3 731.86H229.15C235.225 731.86 240.15 726.935 240.15 720.86V401.16C240.15 395.085 235.225 390.16 229.15 390.16Z" fill="#535461"/>
<path d="M227.56 421.94H81.88V700.06H227.56V421.94Z" fill="#F1F1F4"/>
<path d="M137.5 407.37C138.229 407.37 138.82 406.779 138.82 406.05C138.82 405.321 138.229 404.73 137.5 404.73C136.771 404.73 136.18 405.321 136.18 406.05C136.18 406.779 136.771 407.37 137.5 407.37Z" fill="white"/>
<path d="M172.27 404.72H145.13C144.578 404.72 144.13 405.168 144.13 405.72V406.37C144.13 406.922 144.578 407.37 145.13 407.37H172.27C172.822 407.37 173.27 406.922 173.27 406.37V405.72C173.27 405.168 172.822 404.72 172.27 404.72Z" fill="white"/>
<path d="M154.06 722.58C159.18 722.58 163.33 718.43 163.33 713.31C163.33 708.19 159.18 704.04 154.06 704.04C148.94 704.04 144.79 708.19 144.79 713.31C144.79 718.43 148.94 722.58 154.06 722.58Z" fill="white"/>
<path opacity="0.1" d="M204.39 438.59H105.05V513.46H204.39V438.59Z" fill="black"/>
<path d="M204.39 522.82H105.05V597.69H204.39V522.82Z" fill="white"/>
<path opacity="0.2" d="M147.88 529.3H114.77V548.02H147.88V529.3Z" fill="#6C63FF"/>
<path d="M194.67 529.3H155.8V533.62H194.67V529.3Z" fill="#E6E8EC"/>
<path d="M183.16 536.5H155.8V540.82H183.16V536.5Z" fill="#E6E8EC"/>
<path d="M194.67 543.69H155.8V548.01H194.67V543.69Z" fill="#E6E8EC"/>
<path d="M194.68 550.89H114.77V555.21H194.68V550.89Z" fill="#E6E8EC"/>
<path d="M194.68 558.09H114.77V562.41H194.68V558.09Z" fill="#E6E8EC"/>
<path d="M194.68 565.29H114.77V569.61H194.68V565.29Z" fill="#E6E8EC"/>
<path d="M188.2 572.49H114.77V576.81H188.2V572.49Z" fill="#E6E8EC"/>
<path d="M194.68 579.69H114.77V584.01H194.68V579.69Z" fill="#E6E8EC"/>
<path d="M194.68 586.89H114.77V591.21H194.68V586.89Z" fill="#E6E8EC"/>
<path d="M204.39 607.22H105.05V682.09H204.39V607.22Z" fill="white"/>
<path opacity="0.2" d="M147.88 613.7H114.77V632.42H147.88V613.7Z" fill="#6C63FF"/>
<path d="M194.67 613.7H155.8V618.02H194.67V613.7Z" fill="#E6E8EC"/>
<path d="M183.16 620.9H155.8V625.22H183.16V620.9Z" fill="#E6E8EC"/>
<path d="M194.67 628.1H155.8V632.42H194.67V628.1Z" fill="#E6E8EC"/>
<path d="M194.68 635.3H114.77V639.62H194.68V635.3Z" fill="#E6E8EC"/>
<path d="M194.68 642.5H114.77V646.82H194.68V642.5Z" fill="#E6E8EC"/>
<path d="M194.68 649.7H114.77V654.02H194.68V649.7Z" fill="#E6E8EC"/>
<path d="M188.2 656.9H114.77V661.22H188.2V656.9Z" fill="#E6E8EC"/>
<path d="M194.68 664.09H114.77V668.41H194.68V664.09Z" fill="#E6E8EC"/>
<path d="M194.68 671.29H114.77V675.61H194.68V671.29Z" fill="#E6E8EC"/>
<path d="M449.26 647.69C449.26 647.69 437.72 642.83 428.62 639.19C419.52 635.55 424.98 647.69 424.98 647.69C424.98 647.69 440.16 651.94 440.16 652.55C440.16 653.16 452.91 653.76 452.91 653.76L449.26 647.69Z" fill="#F7C4A7"/>
<path opacity="0.05" d="M449.26 647.69C449.26 647.69 437.72 642.83 428.62 639.19C419.52 635.55 424.98 647.69 424.98 647.69C424.98 647.69 440.16 651.94 440.16 652.55C440.16 653.16 452.91 653.76 452.91 653.76L449.26 647.69Z" fill="black"/>
<path d="M473.48 591.56H382.57V660.07H473.48V591.56Z" fill="url(#paint3_linear)"/>
<path d="M469.76 594.35H386.28V657.27H469.76V594.35Z" fill="white"/>
<path opacity="0.2" d="M422.28 599.8H394.45V615.53H422.28V599.8Z" fill="#6C63FF"/>
<path d="M461.6 599.8H428.93V603.43H461.6V599.8Z" fill="#E6E8EC"/>
<path d="M451.92 605.85H428.93V609.48H451.92V605.85Z" fill="#E6E8EC"/>
<path d="M461.6 611.9H428.93V615.53H461.6V611.9Z" fill="#E6E8EC"/>
<path d="M461.6 617.95H394.45V621.58H461.6V617.95Z" fill="#E6E8EC"/>
<path d="M461.6 624H394.45V627.63H461.6V624Z" fill="#E6E8EC"/>
<path d="M461.6 630.05H394.45V633.68H461.6V630.05Z" fill="#E6E8EC"/>
<path d="M456.16 636.1H394.45V639.73H456.16V636.1Z" fill="#E6E8EC"/>
<path d="M461.6 642.15H394.45V645.78H461.6V642.15Z" fill="#E6E8EC"/>
<path d="M461.6 648.2H394.45V651.83H461.6V648.2Z" fill="#E6E8EC"/>
<path d="M374.6 729.36C374.6 729.42 374.6 729.48 374.54 729.53C374.106 730.566 373.771 731.641 373.54 732.74C373.68 732.26 373.85 731.74 374.05 731.29C374.306 730.67 374.491 730.022 374.6 729.36V729.36Z" fill="#DDDBE2"/>
<path d="M327.28 730.88C324.78 730.06 323.73 728.71 323.69 727.29C322.69 729.29 323.31 731.49 326.84 732.65C334.16 735.04 365.76 738.39 371.79 739.01C371.914 739.027 372.041 739.017 372.161 738.982C372.282 738.946 372.393 738.885 372.488 738.802C372.582 738.72 372.658 738.618 372.71 738.504C372.763 738.39 372.79 738.266 372.79 738.14V738.14C372.794 737.919 372.715 737.704 372.569 737.537C372.423 737.371 372.22 737.265 372 737.24C365.35 736.52 334.5 733.23 327.28 730.88Z" fill="#DDDBE2"/>
<path d="M273.36 712.61C273.515 712.162 273.713 711.73 273.95 711.32C273.294 711.983 272.804 712.792 272.52 713.68C271.19 717.4 307.03 737.08 312.74 740.2C312.831 740.257 312.934 740.292 313.041 740.3C313.147 740.308 313.255 740.291 313.353 740.248C313.452 740.206 313.538 740.14 313.606 740.057C313.673 739.974 313.719 739.875 313.74 739.77V739.77C313.774 739.63 313.76 739.483 313.703 739.351C313.645 739.219 313.546 739.11 313.42 739.04C307.08 735.58 272.04 716.29 273.36 712.61Z" fill="#DDDBE2"/>
<path d="M316.87 733.24C316.55 733.33 316.23 733.75 315.94 734.35H316.04C316.3 734.28 316.76 733.76 317.32 732.95C317.194 733.08 317.04 733.179 316.87 733.24V733.24Z" fill="#DDDBE2"/>
<g opacity="0.1">
<path opacity="0.1" d="M325.53 590.66C325.53 590.66 328.16 556.92 325.53 550.78C322.9 544.64 324.65 523.61 324.65 523.61C324.65 523.61 331.65 514.41 341.3 493.37C347.44 479.97 347 470.67 345.88 465.67C345.603 464.451 345.084 463.3 344.354 462.284C343.624 461.269 342.698 460.411 341.63 459.76C336.04 456.33 323.53 447.99 319.83 439.9C317.11 433.97 313.7 430.96 311.23 429.47L311.06 428.47C311.06 428.47 318.06 429.78 322.89 440.3C326.6 448.39 339.11 456.73 344.69 460.16C345.758 460.811 346.684 461.669 347.414 462.684C348.144 463.7 348.663 464.851 348.94 466.07C350.07 471.07 350.5 480.37 344.36 493.77C334.72 514.77 327.71 524.01 327.71 524.01C327.71 524.01 325.96 545.01 328.59 551.18C331.22 557.35 328.59 591.06 328.59 591.06C328.59 591.06 295.72 597.32 276.28 593.97C295.92 596.3 325.53 590.66 325.53 590.66Z" fill="black"/>
<path opacity="0.1" d="M266.41 474.53C267.01 477.23 266.41 493.11 265.92 502.83C263.8 507.16 262.47 510.02 262.47 510.02C262.47 510.02 264.22 478.02 263.35 474.09C262.52 470.34 277.91 442.84 279.44 440.09L282.63 440.31C282.63 440.31 265.5 470.59 266.41 474.53Z" fill="black"/>
<path opacity="0.1" d="M216.85 511.34C236.13 511.78 253.22 493.34 253.22 493.34C253.737 494.056 254.113 494.864 254.33 495.72C249.33 500.43 235.33 512.1 219.92 511.72C200.64 511.28 177.85 513.91 177.85 513.91C177.85 513.91 177.94 513.62 178.08 513.12C190.96 511.808 203.904 511.213 216.85 511.34Z" fill="black"/>
<path opacity="0.1" d="M251.03 548.15C251.03 548.15 250.85 550.89 250.95 555C246.39 564 238.09 579.52 234.38 580.14L235.03 576.54C241.41 568.53 251.03 548.15 251.03 548.15Z" fill="black"/>
</g>
<path d="M1003.86 382.53C1003.86 382.53 963.13 388.19 954.64 386.53L932.01 365.03C932.01 365.03 910.51 381.44 944.46 392.18L1007.82 399.53L1003.86 382.53Z" fill="#FDC2CC"/>
<path opacity="0.05" d="M1003.86 382.53C1003.86 382.53 963.13 388.19 954.64 386.53L932.01 365.03C932.01 365.03 910.51 381.44 944.46 392.18L1007.82 399.53L1003.86 382.53Z" fill="black"/>
<path d="M1012.97 300.43H821.62V444.63H1012.97V300.43Z" fill="url(#paint4_linear)"/>
<path d="M1008.68 303.66H825.91V441.4H1008.68V303.66Z" fill="white"/>
<path opacity="0.2" d="M904.71 315.58H843.79V350.01H904.71V315.58Z" fill="#6C63FF"/>
<path d="M990.8 315.58H919.28V323.53H990.8V315.58Z" fill="#E6E8EC"/>
<path d="M969.61 328.83H919.28V336.78H969.61V328.83Z" fill="#E6E8EC"/>
<path d="M990.8 342.07H919.28V350.02H990.8V342.07Z" fill="#E6E8EC"/>
<path d="M990.8 355.31H843.79V363.26H990.8V355.31Z" fill="#E6E8EC"/>
<path d="M990.8 368.56H843.79V376.51H990.8V368.56Z" fill="#E6E8EC"/>
<path d="M990.8 381.8H843.79V389.75H990.8V381.8Z" fill="#E6E8EC"/>
<path d="M978.88 395.05H843.79V403H978.88V395.05Z" fill="#E6E8EC"/>
<path d="M990.8 408.29H843.79V416.24H990.8V408.29Z" fill="#E6E8EC"/>
<path d="M990.8 421.53H843.79V429.48H990.8V421.53Z" fill="#E6E8EC"/>
<g opacity="0.05">
<path opacity="0.05" d="M1006.97 428.88C999.34 434.88 992.59 437.39 988.16 438.39C988.16 438.81 988.24 439.23 988.3 439.63C988.3 439.63 999.05 440.2 1012.63 429.45C1014.73 427.647 1017.22 426.348 1019.9 425.65C1016.94 424.28 1012.71 424.37 1006.97 428.88Z" fill="black"/>
<path opacity="0.05" d="M1083.75 322.88C1081.75 316.88 1078.75 309.38 1076.46 307.6C1076.32 307.488 1076.16 307.394 1076 307.32C1076 307.32 1071.32 307.48 1071.47 307.6C1073.8 309.38 1076.06 316.36 1078.09 322.31C1079.73 327.133 1080.15 332.285 1079.32 337.31C1077.32 349.45 1072.98 374.4 1068.07 396.1C1061.28 426.1 1053.93 419.29 1050.53 426.65C1047.75 432.65 1049.14 440.59 1049.74 443.26C1052.16 444.26 1054.26 444.89 1055.62 444.75C1055.62 444.75 1052.79 434.57 1056.19 427.21C1059.59 419.85 1066.94 426.64 1073.73 396.66C1078.64 374.97 1082.96 350.01 1084.98 337.87C1085.81 332.848 1085.38 327.7 1083.75 322.88Z" fill="black"/>
</g>
<defs>
<linearGradient id="paint0_linear" x1="630.99" y1="597.24" x2="630.99" y2="112.86" gradientUnits="userSpaceOnUse">
<stop stop-color="#808080" stop-opacity="0.25"/>
<stop offset="0.54" stop-color="#808080" stop-opacity="0.12"/>
<stop offset="1" stop-color="#808080" stop-opacity="0.1"/>
</linearGradient>
<linearGradient id="paint1_linear" x1="119500" y1="333144" x2="119500" y2="137466" gradientUnits="userSpaceOnUse">
<stop stop-color="#808080" stop-opacity="0.25"/>
<stop offset="0.54" stop-color="#808080" stop-opacity="0.12"/>
<stop offset="1" stop-color="#808080" stop-opacity="0.1"/>
</linearGradient>
<linearGradient id="paint2_linear" x1="36730.3" y1="272876" x2="36730.3" y2="153388" gradientUnits="userSpaceOnUse">
<stop stop-color="#808080" stop-opacity="0.25"/>
<stop offset="0.54" stop-color="#808080" stop-opacity="0.12"/>
<stop offset="1" stop-color="#808080" stop-opacity="0.1"/>
</linearGradient>
<linearGradient id="paint3_linear" x1="35162" y1="43465.8" x2="43426.6" y2="43465.8" gradientUnits="userSpaceOnUse">
<stop stop-color="#808080" stop-opacity="0.25"/>
<stop offset="0.54" stop-color="#808080" stop-opacity="0.12"/>
<stop offset="1" stop-color="#808080" stop-opacity="0.1"/>
</linearGradient>
<linearGradient id="paint4_linear" x1="176347" y1="64416.1" x2="176347" y2="43622.4" gradientUnits="userSpaceOnUse">
<stop stop-color="#808080" stop-opacity="0.25"/>
<stop offset="0.54" stop-color="#808080" stop-opacity="0.12"/>
<stop offset="1" stop-color="#808080" stop-opacity="0.1"/>
</linearGradient>
</defs>
</svg>
